# xmcd
#
# Track frame offsets:
#	150
#	14683
#	29525
#	41215
#	60158
#	73015
#	88643
#	103478
#	120548
#	131108
#
# Disc length: 1918 seconds
#
# Revision: 0
# Processed by: cddbd v1.5PL3 Copyright (c) Steve Scherf et al.
# Submitted via: dBpowerAMP V4.0
#
DISCID=90077c0a
DTITLE=Ken Holloway - Just A Servant
DYEAR=1991
DGENRE=country
TTITLE0=Li'l Church on the Bayou
TTITLE1=Just a Servant
TTITLE2=Cross Country
TTITLE3=Home beyond the Blue
TTITLE4=No More Excuses
TTITLE5=What in Heaven's Name
TTITLE6=Long Ago and Far Away
TTITLE7=Forgotten Friends
TTITLE8=Prodigal Boy
TTITLE9=He's Always There
EXTD=
EXTT0=
EXTT1=
EXTT2=
EXTT3=
EXTT4=
EXTT5=
EXTT6=
EXTT7=
EXTT8=
EXTT9=
PLAYORDER=
